<?xml version="1.0" encoding="UTF-8"?>
<svg width="523px" height="41px" viewBox="0 0 523 41" version="1.1" xmlns="http://www.w3.org/2000/svg" xmlns:xlink="http://www.w3.org/1999/xlink">
    <!-- Generator: Sketch 51.1 (57501) - http://www.bohemiancoding.com/sketch -->
    <title>lofo/wonder copy@2x</title>
    <desc>Created with Sketch.</desc>
    <defs></defs>
    <g id="Page-1" stroke="none" stroke-width="1" fill="none" fill-rule="evenodd">
        <g id="Artboard" transform="translate(-454.000000, -2331.000000)" fill="#FF6670">
            <g id="lofo/wonder-copy" transform="translate(454.000000, 2331.000000)">
                <path d="M106.125,22.5 C106.125,25.8000165 105.391674,28.8249862 103.925,31.575 C102.458326,34.3250137 100.433346,36.499992 97.85,38.1 C95.2666537,39.700008 92.3583495,40.5 89.125,40.5 C85.8916505,40.5 82.9833462,39.700008 80.4,38.1 C77.8166538,36.499992 75.8000072,34.3250137 74.35,31.575 C72.8999927,28.8249862 72.175,25.8000165 72.175,22.5 C72.175,19.1999835 72.8999927,16.1750138 74.35,13.425 C75.8000072,10.6749862 77.8166538,8.500008 80.4,6.9 C82.9833462,5.299992 85.8916505,4.5 89.125,4.5 C92.3583495,4.5 95.2666537,5.299992 97.85,6.9 C100.433346,8.500008 102.458326,10.6749862 103.925,13.425 C105.391674,16.1750138 106.125,19.1999835 106.125,22.5 Z M99.625,22.5 C99.625,20.2666555 99.1750045,18.2416758 98.275,16.425 C97.3749955,14.6083243 96.125008,13.166672 94.525,12.1 C92.924992,11.033328 91.12501,10.5 89.125,10.5 C87.0916565,10.5 85.2833412,11.0249948 83.7,12.075 C82.1166587,13.1250053 80.8833378,14.5666575 80,16.4 C79.1166622,18.2333425 78.675,20.2666555 78.675,22.5 C78.675,24.7333445 79.1166622,26.7666575 80,28.6 C80.8833378,30.4333425 82.1166587,31.8749947 83.7,32.925 C85.2833412,33.9750053 87.0916565,34.5 89.125,34.5 C91.12501,34.5 92.924992,33.966672 94.525,32.9 C96.125008,31.833328 97.3749955,30.3916757 98.275,28.575 C99.1750045,26.7583242 99.625,24.7333445 99.625,22.5 Z M138.653838,4.76296178 C139.453842,4.76296178 140.103835,5.02962578 140.603838,5.56296178 C141.10384,6.09629778 141.353838,6.76295778 141.353838,7.56296178 L141.353838,36.7129618 C141.353838,37.5796328 141.062174,38.3046255 140.478838,38.8879618 C139.895501,39.471298 139.170509,39.7629618 138.303838,39.7629618 C137.837169,39.7629618 137.37884,39.6879625 136.928838,39.5379618 C136.478835,39.387961 136.153839,39.1796298 135.953838,38.9129618 L117.603838,15.6129618 L117.603838,36.9629618 C117.603838,37.7629658 117.345507,38.4296258 116.828838,38.9629618 C116.312168,39.4962978 115.637175,39.7629618 114.803838,39.7629618 C114.003834,39.7629618 113.35384,39.4962978 112.853838,38.9629618 C112.353835,38.4296258 112.103838,37.7629658 112.103838,36.9629618 L112.103838,7.81296178 C112.103838,6.94629078 112.395501,6.22129803 112.978838,5.63796178 C113.562174,5.05462553 114.287167,4.76296178 115.153838,4.76296178 C115.65384,4.76296178 116.145502,4.86296078 116.628838,5.06296178 C117.112173,5.26296278 117.470503,5.52962678 117.703838,5.86296178 L135.903838,29.0629618 L135.903838,7.56296178 C135.903838,6.76295778 136.162168,6.09629778 136.678838,5.56296178 C137.195507,5.02962578 137.853834,4.76296178 138.653838,4.76296178 Z M520,2 C523,2 526,2 511,6.77688871 C496,11.5537774 493.475,12.199996 493.475,13 L493.475,35.6768887 C493.475,36.5435597 493.183336,37.2685525 492.6,37.8518887 C492.016664,38.435225 491.291671,38.7268887 490.425,38.7268887 C489.958331,38.7268887 489.500002,38.6518895 489.05,38.5018887 C488.599998,38.351888 488.275001,38.1435567 488.075,37.8768887 L469.725,14.5768887 L469.725,35.9268887 C469.725,36.7268927 469.466669,37.3935527 468.95,37.9268887 C468.433331,38.4602247 467.758337,38.7268887 466.925,38.7268887 C466.124996,38.7268887 465.475002,38.4602247 464.975,37.9268887 C464.474997,37.3935527 464.225,36.7268927 464.225,35.9268887 L464.225,6.77688871 C464.225,5.91021771 464.516664,5.18522496 465.1,4.60188871 C465.683336,4.01855246 466.408329,3.72688871 467.275,3.72688871 C467.775002,3.72688871 468.266664,3.82688771 468.75,4.02688871 C469.233336,4.22688971 469.591665,4.49355371 469.825,4.82688871 L488.025,28.0268887 L488.025,6.52688871 C488.025,5.72688471 488.283331,5.06022471 488.8,4.52688871 C489.316669,3.99355271 517,2 520,2 Z M163.625,5 C166.758349,5 169.449989,5.77499225 171.7,7.325 C173.950011,8.87500775 175.666661,10.9749867 176.85,13.625 C178.033339,16.2750133 178.625,19.233317 178.625,22.5 C178.625,25.766683 178.033339,28.7249867 176.85,31.375 C175.666661,34.0250133 173.950011,36.1249922 171.7,37.675 C169.449989,39.2250078 166.758349,40 163.625,40 L151.675,40 C150.808329,40 150.083336,39.7083363 149.5,39.125 C148.916664,38.5416637 148.625,37.816671 148.625,36.95 L148.625,8.05 C148.625,7.183329 148.916664,6.45833625 149.5,5.875 C150.083336,5.29166375 150.808329,5 151.675,5 L163.625,5 Z M163.125,34.25 C166.125015,34.25 168.374992,33.1416777 169.875,30.925 C171.375008,28.7083222 172.125,25.900017 172.125,22.5 C172.125,19.099983 171.366674,16.2916777 169.85,14.075 C168.333326,11.8583223 166.091681,10.75 163.125,10.75 L154.875,10.75 L154.875,34.25 L163.125,34.25 Z M204.175,34.25 C205.041671,34.25 205.766664,34.5416637 206.35,35.125 C206.933336,35.7083363 207.225,36.3833295 207.225,37.15 C207.225,37.9833375 206.933336,38.666664 206.35,39.2 C205.766664,39.733336 205.041671,40 204.175,40 L187.425,40 C186.558329,40 185.833336,39.7083363 185.25,39.125 C184.666664,38.5416637 184.375,37.816671 184.375,36.95 L184.375,8.05 C184.375,7.183329 184.666664,6.45833625 185.25,5.875 C185.833336,5.29166375 186.558329,5 187.425,5 L204.175,5 C205.041671,5 205.766664,5.27499725 206.35,5.825 C206.933336,6.37500275 207.225,7.083329 207.225,7.95 C207.225,8.7833375 206.941669,9.45833075 206.375,9.975 C205.808331,10.4916693 205.075004,10.75 204.175,10.75 L190.625,10.75 L190.625,19.25 L201.925,19.25 C202.791671,19.25 203.516664,19.5249973 204.1,20.075 C204.683336,20.6250027 204.975,21.333329 204.975,22.2 C204.975,23.0333375 204.691669,23.7083308 204.125,24.225 C203.558331,24.7416693 202.825004,25 201.925,25 L190.625,25 L190.625,34.25 L204.175,34.25 Z M240.425,35.1 C240.858336,35.366668 241.199999,35.7166645 241.45,36.15 C241.700001,36.5833355 241.825,37.033331 241.825,37.5 C241.825,38.100003 241.625002,38.6499975 241.225,39.15 C240.724998,39.750003 239.958339,40.05 238.925,40.05 C238.124996,40.05 237.39167,39.8666685 236.725,39.5 C234.324988,38.1333265 233.125,35.350021 233.125,31.15 C233.125,29.949994 232.733337,29.0000035 231.95,28.3 C231.166663,27.5999965 230.041674,27.25 228.575,27.25 L219.225,27.25 L219.225,36.95 C219.225,37.8500045 218.983336,38.5833305 218.5,39.15 C218.016664,39.7166695 217.375004,40 216.575,40 C215.608329,40 214.76667,39.7083363 214.05,39.125 C213.33333,38.5416637 212.975,37.816671 212.975,36.95 L212.975,8.05 C212.975,7.183329 213.266664,6.45833625 213.85,5.875 C214.433336,5.29166375 215.158329,5 216.025,5 L230.425,5 C232.158342,5 233.791659,5.466662 235.325,6.4 C236.858341,7.333338 238.083329,8.6166585 239,10.25 C239.916671,11.8833415 240.375,13.7166565 240.375,15.75 C240.375,17.416675 239.925005,19.0416588 239.025,20.625 C238.124996,22.2083412 236.958341,23.466662 235.525,24.4 C237.625011,25.866674 238.774999,27.833321 238.975,30.3 C239.075001,30.833336 239.125,31.3499975 239.125,31.85 C239.258334,32.8833385 239.391666,33.6249978 239.525,34.075 C239.658334,34.5250023 239.958331,34.8666655 240.425,35.1 Z M230.175,22.1 C230.775003,22.1 231.358331,21.8166695 231.925,21.25 C232.49167,20.6833305 232.958332,19.9250047 233.325,18.975 C233.691669,18.0249952 233.875,17.0000055 233.875,15.9 C233.875,14.966662 233.691669,14.1083373 233.325,13.325 C232.958332,12.5416628 232.49167,11.916669 231.925,11.45 C231.358331,10.983331 230.775003,10.75 230.175,10.75 L219.225,10.75 L219.225,22.1 L230.175,22.1 Z M300.414419,4.76296178 C301.214423,4.76296178 301.956082,5.07129203 302.639419,5.68796178 C303.322756,6.30463153 303.664419,7.07962378 303.664419,8.01296178 C303.664419,8.31296328 303.614419,8.64629328 303.514419,9.01296178 L293.664419,38.0129618 C293.464418,38.5796313 293.114421,39.0296268 292.614419,39.3629618 C292.114416,39.6962968 291.564422,39.8796283 290.964419,39.9129618 C290.364416,39.9129618 289.797755,39.7462968 289.264419,39.4129618 C288.731083,39.0796268 288.31442,38.5962983 288.014419,37.9629618 L280.914419,21.8129618 L273.764419,37.9629618 C273.464417,38.5962983 273.047755,39.0796268 272.514419,39.4129618 C271.981083,39.7462968 271.414422,39.9129618 270.814419,39.9129618 C270.214416,39.8796283 269.664421,39.6962968 269.164419,39.3629618 C268.664416,39.0296268 268.31442,38.5796313 268.114419,38.0129618 L258.264419,9.01296178 C258.164418,8.64629328 258.114419,8.31296328 258.114419,8.01296178 C258.114419,7.07962378 258.456082,6.30463153 259.139419,5.68796178 C259.822756,5.07129203 260.581081,4.76296178 261.414419,4.76296178 C262.081089,4.76296178 262.681083,4.93796003 263.214419,5.28796178 C263.747755,5.63796353 264.114418,6.11295878 264.314419,6.71296178 L271.764419,29.3129618 L278.264419,13.7129618 C278.531087,13.1129588 278.914416,12.6379635 279.414419,12.2879618 C279.914421,11.93796 280.481082,11.7796283 281.114419,11.8129618 C281.747755,11.7796283 282.306083,11.93796 282.789419,12.2879618 C283.272755,12.6379635 283.647751,13.1129588 283.914419,13.7129618 L290.064419,29.1629618 L297.464419,6.71296178 C297.66442,6.11295878 298.039416,5.63796353 298.589419,5.28796178 C299.139422,4.93796003 299.747749,4.76296178 300.414419,4.76296178 Z M67.925,4.52592356 C68.725004,4.52592356 69.4666633,4.83425381 70.15,5.45092356 C70.8333368,6.06759331 71.175,6.84258556 71.175,7.77592356 C71.175,8.07592506 71.1250005,8.40925506 71.025,8.77592356 L61.175,37.7759236 C60.974999,38.3425931 60.6250025,38.7925886 60.125,39.1259236 C59.6249975,39.4592586 59.075003,39.6425901 58.475,39.6759236 C57.874997,39.6759236 57.308336,39.5092586 56.775,39.1759236 C56.241664,38.8425886 55.8250015,38.3592601 55.525,37.7259236 L48.425,21.5759236 L41.275,37.7259236 C40.9749985,38.3592601 40.558336,38.8425886 40.025,39.1759236 C39.491664,39.5092586 38.925003,39.6759236 38.325,39.6759236 C37.724997,39.6425901 37.1750025,39.4592586 36.675,39.1259236 C36.1749975,38.7925886 35.825001,38.3425931 35.625,37.7759236 L25.775,8.77592356 C25.6749995,8.40925506 -5.48941883,5.05092356 1.51058117,3.76296178 C7.46186693,2.66795769 24.5105812,0.762961778 27.5105812,0.762961778 C30.5105812,0.762961778 31.624999,5.87592056 31.825,6.47592356 L39.275,29.0759236 L45.775,13.4759236 C46.041668,12.8759206 46.4249975,12.4009253 46.925,12.0509236 C47.4250025,11.7009218 47.9916635,11.5425901 48.625,11.5759236 C49.2583365,11.5425901 49.8166643,11.7009218 50.3,12.0509236 C50.7833358,12.4009253 51.158332,12.8759206 51.425,13.4759236 L57.575,28.9259236 L64.975,6.47592356 C65.175001,5.87592056 65.5499973,5.40092531 66.1,5.05092356 C66.6500028,4.70092181 67.25833,4.52592356 67.925,4.52592356 Z M333.825,5 C334.758338,5 335.508331,5.2833305 336.075,5.85 C336.64167,6.4166695 336.925,7.1499955 336.925,8.05 L336.925,36.95 C336.925,37.816671 336.625003,38.5416637 336.025,39.125 C335.424997,39.7083363 334.658338,40 333.725,40 C332.891663,40 332.175003,39.7083363 331.575,39.125 C330.974997,38.5416637 330.675,37.816671 330.675,36.95 L330.675,25.3 L314.725,25.3 L314.725,36.95 C314.725,37.816671 314.408337,38.5416637 313.775,39.125 C313.141664,39.7083363 312.408338,40 311.575,40 C310.674996,40 309.933336,39.7083363 309.35,39.125 C308.766664,38.5416637 308.475,37.816671 308.475,36.95 L308.475,8.05 C308.475,7.183329 308.774997,6.45833625 309.375,5.875 C309.975003,5.29166375 310.741662,5 311.675,5 C312.508338,5 313.224997,5.29166375 313.825,5.875 C314.425003,6.45833625 314.725,7.183329 314.725,8.05 L314.725,19.55 L330.675,19.55 L330.675,8.05 C330.675,7.183329 330.991664,6.45833625 331.625,5.875 C332.258337,5.29166375 332.991663,5 333.825,5 Z M376.625,22.5 C376.625,25.8000165 375.891674,28.8249862 374.425,31.575 C372.958326,34.3250137 370.933346,36.499992 368.35,38.1 C365.766654,39.700008 362.85835,40.5 359.625,40.5 C356.39165,40.5 353.483346,39.700008 350.9,38.1 C348.316654,36.499992 346.300007,34.3250137 344.85,31.575 C343.399993,28.8249862 342.675,25.8000165 342.675,22.5 C342.675,19.1999835 343.399993,16.1750138 344.85,13.425 C346.300007,10.6749862 348.316654,8.500008 350.9,6.9 C353.483346,5.299992 356.39165,4.5 359.625,4.5 C362.85835,4.5 365.766654,5.299992 368.35,6.9 C370.933346,8.500008 372.958326,10.6749862 374.425,13.425 C375.891674,16.1750138 376.625,19.1999835 376.625,22.5 Z M370.125,22.5 C370.125,20.2666555 369.675005,18.2416758 368.775,16.425 C367.874996,14.6083243 366.625008,13.166672 365.025,12.1 C363.424992,11.033328 361.62501,10.5 359.625,10.5 C357.591656,10.5 355.783341,11.0249948 354.2,12.075 C352.616659,13.1250053 351.383338,14.5666575 350.5,16.4 C349.616662,18.2333425 349.175,20.2666555 349.175,22.5 C349.175,24.7333445 349.616662,26.7666575 350.5,28.6 C351.383338,30.4333425 352.616659,31.8749947 354.2,32.925 C355.783341,33.9750053 357.591656,34.5 359.625,34.5 C361.62501,34.5 363.424992,33.966672 365.025,32.9 C366.625008,31.833328 367.874996,30.3916757 368.775,28.575 C369.675005,26.7583242 370.125,24.7333445 370.125,22.5 Z M423.825,35.1 C424.258335,35.366668 424.599999,35.7166645 424.85,36.15 C425.100001,36.5833355 425.225,37.033331 425.225,37.5 C425.225,38.100003 425.025002,38.6499975 424.625,39.15 C424.124998,39.750003 423.358338,40.05 422.325,40.05 C421.524996,40.05 420.79167,39.8666685 420.125,39.5 C417.724988,38.1333265 416.525,35.350021 416.525,31.15 C416.525,29.949994 416.133337,29.0000035 415.35,28.3 C414.566663,27.5999965 413.441674,27.25 411.975,27.25 L402.625,27.25 L402.625,36.95 C402.625,37.8500045 402.383336,38.5833305 401.9,39.15 C401.416664,39.7166695 400.775004,40 399.975,40 C399.008329,40 398.16667,39.7083363 397.45,39.125 C396.73333,38.5416637 396.375,37.816671 396.375,36.95 L396.375,8.05 C396.375,7.183329 396.666664,6.45833625 397.25,5.875 C397.833336,5.29166375 398.558329,5 399.425,5 L413.825,5 C415.558342,5 417.191659,5.466662 418.725,6.4 C420.258341,7.333338 421.483329,8.6166585 422.4,10.25 C423.316671,11.8833415 423.775,13.7166565 423.775,15.75 C423.775,17.416675 423.325004,19.0416588 422.425,20.625 C421.524995,22.2083412 420.35834,23.466662 418.925,24.4 C421.025011,25.866674 422.174999,27.833321 422.375,30.3 C422.475,30.833336 422.525,31.3499975 422.525,31.85 C422.658334,32.8833385 422.791666,33.6249978 422.925,34.075 C423.058334,34.5250023 423.358331,34.8666655 423.825,35.1 Z M413.575,22.1 C414.175003,22.1 414.758331,21.8166695 415.325,21.25 C415.89167,20.6833305 416.358332,19.9250047 416.725,18.975 C417.091668,18.0249952 417.275,17.0000055 417.275,15.9 C417.275,14.966662 417.091668,14.1083373 416.725,13.325 C416.358332,12.5416628 415.89167,11.916669 415.325,11.45 C414.758331,10.983331 414.175003,10.75 413.575,10.75 L402.625,10.75 L402.625,22.1 L413.575,22.1 Z M455.575,4.95 C456.441671,4.95 457.141664,5.2333305 457.675,5.8 C458.208336,6.3666695 458.475,7.0999955 458.475,8 L458.475,26.1 C458.475,28.8666805 457.891673,31.316656 456.725,33.45 C455.558328,35.583344 453.925011,37.249994 451.825,38.45 C449.72499,39.650006 447.325014,40.25 444.625,40.25 C441.924987,40.25 439.516677,39.650006 437.4,38.45 C435.283323,37.249994 433.641673,35.583344 432.475,33.45 C431.308328,31.316656 430.725,28.8666805 430.725,26.1 L430.725,8 C430.725,7.133329 431.024997,6.40833625 431.625,5.825 C432.225003,5.24166375 432.991662,4.95 433.925,4.95 C434.725004,4.95 435.424997,5.24166375 436.025,5.825 C436.625003,6.40833625 436.925,7.133329 436.925,8 L436.925,26.1 C436.925,27.700008 437.274997,29.1249937 437.975,30.375 C438.675004,31.6250062 439.616661,32.58333 440.8,33.25 C441.983339,33.91667 443.258327,34.25 444.625,34.25 C446.058341,34.25 447.399994,33.91667 448.65,33.25 C449.900006,32.58333 450.899996,31.6250062 451.65,30.375 C452.400004,29.1249937 452.775,27.700008 452.775,26.1 L452.775,8 C452.775,7.0999955 453.024998,6.3666695 453.525,5.8 C454.025003,5.2333305 454.708329,4.95 455.575,4.95 Z" id="WONDER-WHO-RUN-Copy"></path>
            </g>
        </g>
    </g>
</svg>