<?xml version="1.0" encoding="UTF-8"?>
<svg width="299px" height="23px" viewBox="0 0 299 23" version="1.1" xmlns="http://www.w3.org/2000/svg" xmlns:xlink="http://www.w3.org/1999/xlink">
    <!-- Generator: Sketch 51.1 (57501) - http://www.bohemiancoding.com/sketch -->
    <title>lofo/wonder copy@2x</title>
    <desc>Created with Sketch.</desc>
    <defs></defs>
    <g id="Page-1" stroke="none" stroke-width="1" fill="none" fill-rule="evenodd">
        <g id="Artboard" transform="translate(-45.000000, -2328.000000)" fill="#FAFAFA">
            <g id="lofo/wonder" transform="translate(45.000000, 2328.000000)">
                <path d="M60.6718451,12.6219512 C60.6718451,14.47318 60.2526014,16.1701142 59.4141013,17.7128049 C58.5756013,19.2554955 57.4179169,20.4756053 55.9410134,21.3731707 C54.4641099,22.2707362 52.8014273,22.7195122 50.9529159,22.7195122 C49.1044044,22.7195122 47.4417219,22.2707362 45.9648184,21.3731707 C44.4879149,20.4756053 43.3349946,19.2554955 42.5060229,17.7128049 C41.6770513,16.1701142 41.2625717,14.47318 41.2625717,12.6219512 C41.2625717,10.7707225 41.6770513,9.0737882 42.5060229,7.53109756 C43.3349946,5.98840692 44.4879149,4.76829717 45.9648184,3.87073171 C47.4417219,2.97316624 49.1044044,2.52439024 50.9529159,2.52439024 C52.8014273,2.52439024 54.4641099,2.97316624 55.9410134,3.87073171 C57.4179169,4.76829717 58.5756013,5.98840692 59.4141013,7.53109756 C60.2526014,9.0737882 60.6718451,10.7707225 60.6718451,12.6219512 Z M56.9557839,12.6219512 C56.9557839,11.3690994 56.6985207,10.2331352 56.1839866,9.21402439 C55.6694525,8.1949136 54.9548325,7.38618185 54.0401052,6.78780488 C53.1253778,6.1894279 52.096325,5.8902439 50.9529159,5.8902439 C49.7904499,5.8902439 48.756633,6.18475315 47.851434,6.77378049 C46.9462351,7.36280782 46.2411434,8.17153957 45.7361377,9.2 C45.231132,10.2284604 44.9786329,11.3690994 44.9786329,12.6219512 C44.9786329,13.874803 45.231132,15.015442 45.7361377,16.0439024 C46.2411434,17.0723629 46.9462351,17.8810946 47.851434,18.470122 C48.756633,19.0591493 49.7904499,19.3536585 50.9529159,19.3536585 C52.096325,19.3536585 53.1253778,19.0544745 54.0401052,18.4560976 C54.9548325,17.8577206 55.6694525,17.0489888 56.1839866,16.029878 C56.6985207,15.0107673 56.9557839,13.874803 56.9557839,12.6219512 Z M79.2686376,2.67190539 C79.7260013,2.67190539 80.0976037,2.82149739 80.383456,3.12068588 C80.6693082,3.41987436 80.8122322,3.79385436 80.8122322,4.24263709 L80.8122322,20.5950761 C80.8122322,21.0812574 80.6454876,21.4879607 80.3119932,21.8151981 C79.9784989,22.1424355 79.5640193,22.3060517 79.068542,22.3060517 C78.8017465,22.3060517 78.5397192,22.263979 78.2824521,22.1798322 C78.0251851,22.0956855 77.8393839,21.9788167 77.7250429,21.8292225 L67.2343164,8.75849075 L67.2343164,20.73532 C67.2343164,21.1841028 67.0866282,21.5580828 66.7912475,21.8572712 C66.4958668,22.1564597 66.109972,22.3060517 65.6335516,22.3060517 C65.1761879,22.3060517 64.8045855,22.1564597 64.5187332,21.8572712 C64.2328809,21.5580828 64.0899569,21.1841028 64.0899569,20.73532 L64.0899569,4.382881 C64.0899569,3.8966997 64.2567016,3.48999645 64.5901959,3.16275905 C64.9236902,2.83552164 65.3381699,2.67190539 65.8336472,2.67190539 C66.1194994,2.67190539 66.4005833,2.72800239 66.6769072,2.84019807 C66.9532311,2.95239375 67.1580888,3.10198575 67.2914865,3.28897856 L77.6964579,16.3036127 L77.6964579,4.24263709 C77.6964579,3.79385436 77.844146,3.41987436 78.1395267,3.12068588 C78.4349074,2.82149739 78.8112739,2.67190539 79.2686376,2.67190539 Z M297.284895,1.12195122 C299,1.12195122 300.715105,1.12195122 292.139579,3.80166928 C283.564054,6.48138733 282.120507,6.8439002 282.120507,7.29268293 L282.120507,20.0138644 C282.120507,20.5000457 281.953762,20.9067489 281.620268,21.2339863 C281.286773,21.5612238 280.872294,21.72484 280.376816,21.72484 C280.110021,21.72484 279.847994,21.6827673 279.590727,21.5986205 C279.33346,21.5144737 279.147658,21.397605 279.033317,21.2480107 L268.542591,8.17727903 L268.542591,20.1541083 C268.542591,20.602891 268.394903,20.976871 268.099522,21.2760595 C267.804141,21.575248 267.418246,21.72484 266.941826,21.72484 C266.484462,21.72484 266.11286,21.575248 265.827008,21.2760595 C265.541155,20.976871 265.398231,20.602891 265.398231,20.1541083 L265.398231,3.80166928 C265.398231,3.31548798 265.564976,2.90878473 265.89847,2.58154732 C266.231965,2.25430992 266.646444,2.09069367 267.141922,2.09069367 C267.427774,2.09069367 267.708858,2.14679067 267.985182,2.25898635 C268.261506,2.37118203 268.466363,2.52077403 268.599761,2.70776684 L279.004732,15.722401 L279.004732,3.66142537 C279.004732,3.21264264 279.15242,2.83866264 279.447801,2.53947415 C279.743182,2.24028567 295.56979,1.12195122 297.284895,1.12195122 Z M93.5446941,2.80487805 C95.3360351,2.80487805 96.8748502,3.2396298 98.1611855,4.10914634 C99.4475208,4.97866288 100.428932,6.15669988 101.105449,7.64329268 C101.781966,9.12988548 102.12022,10.7894217 102.12022,12.6219512 C102.12022,14.4544807 101.781966,16.114017 101.105449,17.6006098 C100.428932,19.0872026 99.4475208,20.2652396 98.1611855,21.1347561 C96.8748502,22.0042726 95.3360351,22.4390244 93.5446941,22.4390244 L86.7128585,22.4390244 C86.2173812,22.4390244 85.8029016,22.2754081 85.4694073,21.9481707 C85.1359129,21.6209333 84.9691683,21.2142301 84.9691683,20.7280488 L84.9691683,4.51585366 C84.9691683,4.02967237 85.1359129,3.62296912 85.4694073,3.29573171 C85.8029016,2.9684943 86.2173812,2.80487805 86.7128585,2.80487805 L93.5446941,2.80487805 Z M93.2588432,19.2134146 C94.973957,19.2134146 96.260273,18.5916729 97.1178298,17.3481707 C97.9753867,16.1046686 98.4041587,14.5292778 98.4041587,12.6219512 C98.4041587,10.7146246 97.9706226,9.13923386 97.1035373,7.89573171 C96.236452,6.65222955 94.9549001,6.0304878 93.2588432,6.0304878 L88.542304,6.0304878 L88.542304,19.2134146 L93.2588432,19.2134146 Z M116.727199,19.2134146 C117.222676,19.2134146 117.637156,19.3770309 117.97065,19.7042683 C118.304144,20.0315057 118.470889,20.4101605 118.470889,20.8402439 C118.470889,21.3077259 118.304144,21.6910554 117.97065,21.9902439 C117.637156,22.2894324 117.222676,22.4390244 116.727199,22.4390244 L107.151195,22.4390244 C106.655718,22.4390244 106.241238,22.2754081 105.907744,21.9481707 C105.574249,21.6209333 105.407505,21.2142301 105.407505,20.7280488 L105.407505,4.51585366 C105.407505,4.02967237 105.574249,3.62296912 105.907744,3.29573171 C106.241238,2.9684943 106.655718,2.80487805 107.151195,2.80487805 L116.727199,2.80487805 C117.222676,2.80487805 117.637156,2.9591448 117.97065,3.26768293 C118.304144,3.57622105 118.470889,3.9735748 118.470889,4.4597561 C118.470889,4.92723811 118.308909,5.30589286 117.984943,5.59573171 C117.660977,5.88557055 117.241733,6.0304878 116.727199,6.0304878 L108.980641,6.0304878 L108.980641,10.7987805 L115.44087,10.7987805 C115.936347,10.7987805 116.350827,10.9530472 116.684321,11.2615854 C117.017816,11.5701235 117.18456,11.9674772 117.18456,12.4536585 C117.18456,12.9211405 117.02258,13.2997953 116.698614,13.5896341 C116.374648,13.879473 115.955404,14.0243902 115.44087,14.0243902 L108.980641,14.0243902 L108.980641,19.2134146 L116.727199,19.2134146 Z M137.451386,19.6902439 C137.699125,19.8398381 137.894454,20.0361776 138.03738,20.2792683 C138.180307,20.5223589 138.251769,20.7747954 138.251769,21.0365854 C138.251769,21.3731724 138.137429,21.6817059 137.908748,21.9621951 C137.622895,22.2987822 137.184595,22.4670732 136.593834,22.4670732 C136.13647,22.4670732 135.717226,22.3642287 135.33609,22.1585366 C133.963999,21.3918661 133.277964,19.8304996 133.277964,17.4743902 C133.277964,16.8012161 133.054049,16.2682946 132.606214,15.8756098 C132.158379,15.4829249 131.515221,15.2865854 130.676721,15.2865854 L125.33131,15.2865854 L125.33131,20.7280488 C125.33131,21.2329294 125.19315,21.6443074 124.916826,21.9621951 C124.640502,22.2800829 124.273664,22.4390244 123.8163,22.4390244 C123.263652,22.4390244 122.782475,22.2754081 122.372753,21.9481707 C121.963032,21.6209333 121.758174,21.2142301 121.758174,20.7280488 L121.758174,4.51585366 C121.758174,4.02967237 121.924919,3.62296912 122.258413,3.29573171 C122.591907,2.9684943 123.006387,2.80487805 123.501864,2.80487805 L131.734369,2.80487805 C132.725324,2.80487805 133.659094,3.06666405 134.535707,3.5902439 C135.412321,4.11382376 136.112649,4.83373526 136.636711,5.75 C137.160774,6.66626474 137.422801,7.69470974 137.422801,8.83536585 C137.422801,9.77032988 137.165538,10.6819061 136.651004,11.570122 C136.13647,12.4583378 135.469491,13.164225 134.650048,13.6878049 C135.850627,14.5105732 136.508078,15.6138142 136.622419,16.997561 C136.679589,17.2967495 136.708174,17.586584 136.708174,17.8670732 C136.784401,18.4467509 136.860627,18.8628036 136.936855,19.1152439 C137.013082,19.3676842 137.184591,19.5593489 137.451386,19.6902439 Z M131.591444,12.397561 C131.934466,12.397561 132.267956,12.2386195 132.591922,11.9207317 C132.915888,11.6028439 133.182679,11.1774417 133.392304,10.6445122 C133.601929,10.1115827 133.70674,9.53658845 133.70674,8.9195122 C133.70674,8.39593234 133.601929,7.91443309 133.392304,7.475 C133.182679,7.03556691 132.915888,6.68496066 132.591922,6.42317073 C132.267956,6.1613808 131.934466,6.0304878 131.591444,6.0304878 L125.33131,6.0304878 L125.33131,12.397561 L131.591444,12.397561 Z M171.74744,2.67190539 C172.204804,2.67190539 172.628812,2.84487114 173.019477,3.19080783 C173.410141,3.53674452 173.605471,3.97149627 173.605471,4.49507612 C173.605471,4.66336964 173.576886,4.85035964 173.519716,5.05605173 L167.888454,21.3243444 C167.774113,21.6422322 167.574019,21.8946687 167.288167,22.0816615 C167.002314,22.2686543 166.687882,22.3714988 166.344859,22.3901981 C166.001836,22.3901981 165.677875,22.2967031 165.372966,22.1097103 C165.068057,21.9227175 164.82985,21.651582 164.658339,21.2962956 L160.599257,12.2365395 L156.511589,21.2962956 C156.340078,21.651582 156.101871,21.9227175 155.796962,22.1097103 C155.492053,22.2967031 155.168092,22.3901981 154.825069,22.3901981 C154.482047,22.3714988 154.167614,22.2686543 153.881761,22.0816615 C153.595909,21.8946687 153.395816,21.6422322 153.281475,21.3243444 L147.650213,5.05605173 C147.593042,4.85035964 147.564457,4.66336964 147.564457,4.49507612 C147.564457,3.97149627 147.759787,3.53674452 148.150452,3.19080783 C148.541116,2.84487114 148.974653,2.67190539 149.451073,2.67190539 C149.832209,2.67190539 150.175227,2.77007514 150.480136,2.96641758 C150.785045,3.16276003 150.994667,3.42922078 151.109008,3.76580783 L155.368186,16.4438566 L159.084247,7.69263709 C159.236702,7.35605005 159.455852,7.0895893 159.741704,6.89324685 C160.027556,6.69690441 160.351517,6.60808416 160.713597,6.62678344 C161.075677,6.60808416 161.394874,6.69690441 161.671197,6.89324685 C161.947521,7.0895893 162.161907,7.35605005 162.314362,7.69263709 L165.830327,16.3597103 L170.06092,3.76580783 C170.175261,3.42922078 170.389647,3.16276003 170.704085,2.96641758 C171.018522,2.77007514 171.366304,2.67190539 171.74744,2.67190539 Z M38.8328394,2.53893273 C39.2902031,2.53893273 39.7142109,2.71189848 40.1048757,3.05783517 C40.4955405,3.40377185 40.69087,3.8385236 40.69087,4.36210346 C40.69087,4.53039698 40.6622852,4.71738698 40.6051147,4.92307907 L34.9738528,21.1913718 C34.8595119,21.5092595 34.6594183,21.761696 34.373566,21.9486888 C34.0877137,22.1356816 33.7732809,22.2385261 33.4302581,22.2572254 C33.0872354,22.2572254 32.7632743,22.1637304 32.4583652,21.9767376 C32.1534561,21.7897448 31.9152494,21.5186093 31.743738,21.163323 L27.6846558,12.1035669 L23.5969885,21.163323 C23.4254772,21.5186093 23.1872705,21.7897448 22.8823614,21.9767376 C22.5774523,22.1637304 22.2534912,22.2572254 21.9104685,22.2572254 C21.5674457,22.2385261 21.2530129,22.1356816 20.9671606,21.9486888 C20.6813083,21.761696 20.4812147,21.5092595 20.3668738,21.1913718 L14.7356119,4.92307907 C14.6784414,4.71738698 -3.13831019,2.83344492 0.863601853,2.11092978 C4.26596217,1.49665919 14.0127414,0.428002949 15.7278466,0.428002949 C17.4429518,0.428002949 18.0800663,3.29624812 18.1944073,3.63283517 L22.4535851,16.3108839 L26.1696463,7.55966443 C26.3221008,7.22307738 26.541251,6.95661663 26.8271033,6.76027419 C27.1129555,6.56393174 27.4369166,6.47511149 27.7989962,6.49381078 C28.1610757,6.47511149 28.4802727,6.56393174 28.7565966,6.76027419 C29.0329204,6.95661663 29.2473064,7.22307738 29.399761,7.55966443 L32.9157266,16.2267376 L37.1463193,3.63283517 C37.2606602,3.29624812 37.4750462,3.02978737 37.7894837,2.83344492 C38.1039213,2.63710248 38.451703,2.53893273 38.8328394,2.53893273 Z M190.848327,2.80487805 C191.381918,2.80487805 191.81069,2.96381955 192.134656,3.28170732 C192.458622,3.59959509 192.620602,4.01097309 192.620602,4.51585366 L192.620602,20.7280488 C192.620602,21.2142301 192.449093,21.6209333 192.106071,21.9481707 C191.763048,22.2754081 191.324748,22.4390244 190.791157,22.4390244 C190.314736,22.4390244 189.905021,22.2754081 189.561998,21.9481707 C189.218975,21.6209333 189.047467,21.2142301 189.047467,20.7280488 L189.047467,14.1926829 L179.928824,14.1926829 L179.928824,20.7280488 C179.928824,21.2142301 179.747787,21.6209333 179.385707,21.9481707 C179.023628,22.2754081 178.604384,22.4390244 178.127964,22.4390244 C177.61343,22.4390244 177.189422,22.2754081 176.855927,21.9481707 C176.522433,21.6209333 176.355688,21.2142301 176.355688,20.7280488 L176.355688,4.51585366 C176.355688,4.02967237 176.527197,3.62296912 176.87022,3.29573171 C177.213243,2.9684943 177.651543,2.80487805 178.185134,2.80487805 C178.661554,2.80487805 179.07127,2.9684943 179.414293,3.29573171 C179.757315,3.62296912 179.928824,4.02967237 179.928824,4.51585366 L179.928824,10.9670732 L189.047467,10.9670732 L189.047467,4.51585366 C189.047467,4.02967237 189.228504,3.62296912 189.590583,3.29573171 C189.952663,2.9684943 190.371906,2.80487805 190.848327,2.80487805 Z M215.317161,12.6219512 C215.317161,14.47318 214.897917,16.1701142 214.059417,17.7128049 C213.220917,19.2554955 212.063232,20.4756053 210.586329,21.3731707 C209.109425,22.2707362 207.446743,22.7195122 205.598231,22.7195122 C203.74972,22.7195122 202.087037,22.2707362 200.610134,21.3731707 C199.13323,20.4756053 197.98031,19.2554955 197.151338,17.7128049 C196.322367,16.1701142 195.907887,14.47318 195.907887,12.6219512 C195.907887,10.7707225 196.322367,9.0737882 197.151338,7.53109756 C197.98031,5.98840692 199.13323,4.76829717 200.610134,3.87073171 C202.087037,2.97316624 203.74972,2.52439024 205.598231,2.52439024 C207.446743,2.52439024 209.109425,2.97316624 210.586329,3.87073171 C212.063232,4.76829717 213.220917,5.98840692 214.059417,7.53109756 C214.897917,9.0737882 215.317161,10.7707225 215.317161,12.6219512 Z M211.601099,12.6219512 C211.601099,11.3690994 211.343836,10.2331352 210.829302,9.21402439 C210.314768,8.1949136 209.600148,7.38618185 208.685421,6.78780488 C207.770693,6.1894279 206.741641,5.8902439 205.598231,5.8902439 C204.435765,5.8902439 203.401948,6.18475315 202.49675,6.77378049 C201.591551,7.36280782 200.886459,8.17153957 200.381453,9.2 C199.876447,10.2284604 199.623948,11.3690994 199.623948,12.6219512 C199.623948,13.874803 199.876447,15.015442 200.381453,16.0439024 C200.886459,17.0723629 201.591551,17.8810946 202.49675,18.470122 C203.401948,19.0591493 204.435765,19.3536585 205.598231,19.3536585 C206.741641,19.3536585 207.770693,19.0544745 208.685421,18.4560976 C209.600148,17.8577206 210.314768,17.0489888 210.829302,16.029878 C211.343836,15.0107673 211.601099,13.874803 211.601099,12.6219512 Z M242.301482,19.6902439 C242.54922,19.8398381 242.74455,20.0361776 242.887476,20.2792683 C243.030402,20.5223589 243.101864,20.7747954 243.101864,21.0365854 C243.101864,21.3731724 242.987525,21.6817059 242.758843,21.9621951 C242.472991,22.2987822 242.034691,22.4670732 241.443929,22.4670732 C240.986566,22.4670732 240.567322,22.3642287 240.186185,22.1585366 C238.814094,21.3918661 238.128059,19.8304996 238.128059,17.4743902 C238.128059,16.8012161 237.904145,16.2682946 237.45631,15.8756098 C237.008474,15.4829249 236.365316,15.2865854 235.526816,15.2865854 L230.181405,15.2865854 L230.181405,20.7280488 C230.181405,21.2329294 230.043245,21.6443074 229.766922,21.9621951 C229.490598,22.2800829 229.123759,22.4390244 228.666396,22.4390244 C228.113748,22.4390244 227.632571,22.2754081 227.222849,21.9481707 C226.813127,21.6209333 226.60827,21.2142301 226.60827,20.7280488 L226.60827,4.51585366 C226.60827,4.02967237 226.775014,3.62296912 227.108509,3.29573171 C227.442003,2.9684943 227.856483,2.80487805 228.35196,2.80487805 L236.584465,2.80487805 C237.575419,2.80487805 238.509189,3.06666405 239.385803,3.5902439 C240.262417,4.11382376 240.962744,4.83373526 241.486807,5.75 C242.010869,6.66626474 242.272897,7.69470974 242.272897,8.83536585 C242.272897,9.77032988 242.015634,10.6819061 241.501099,11.570122 C240.986565,12.4583378 240.319587,13.164225 239.500143,13.6878049 C240.700723,14.5105732 241.358173,15.6138142 241.472514,16.997561 C241.529685,17.2967495 241.55827,17.586584 241.55827,17.8670732 C241.634497,18.4467509 241.710723,18.8628036 241.78695,19.1152439 C241.863178,19.3676842 242.034686,19.5593489 242.301482,19.6902439 Z M236.441539,12.397561 C236.784562,12.397561 237.118051,12.2386195 237.442017,11.9207317 C237.765983,11.6028439 238.032775,11.1774417 238.2424,10.6445122 C238.452025,10.1115827 238.556836,9.53658845 238.556836,8.9195122 C238.556836,8.39593234 238.452025,7.91443309 238.2424,7.475 C238.032775,7.03556691 237.765983,6.68496066 237.442017,6.42317073 C237.118051,6.1613808 236.784562,6.0304878 236.441539,6.0304878 L230.181405,6.0304878 L230.181405,12.397561 L236.441539,12.397561 Z M260.453011,2.77682927 C260.948489,2.77682927 261.348676,2.93577077 261.653585,3.25365854 C261.958494,3.5715463 262.110946,3.9829243 262.110946,4.48780488 L262.110946,14.6414634 C262.110946,16.1935037 261.777457,17.5678802 261.110468,18.7646341 C260.44348,19.9613881 259.50971,20.8963381 258.30913,21.5695122 C257.10855,22.2426863 255.73648,22.5792683 254.192878,22.5792683 C252.649275,22.5792683 251.272441,22.2426863 250.062333,21.5695122 C248.852225,20.8963381 247.91369,19.9613881 247.246702,18.7646341 C246.579713,17.5678802 246.246224,16.1935037 246.246224,14.6414634 L246.246224,4.48780488 C246.246224,4.00162359 246.417733,3.59492034 246.760755,3.26768293 C247.103778,2.94044552 247.542078,2.77682927 248.075669,2.77682927 C248.533033,2.77682927 248.93322,2.94044552 249.276243,3.26768293 C249.619266,3.59492034 249.790774,4.00162359 249.790774,4.48780488 L249.790774,14.6414634 C249.790774,15.5390289 249.990868,16.3384111 250.391061,17.0396341 C250.791254,17.7408572 251.329601,18.2784534 252.006119,18.652439 C252.682636,19.0264246 253.411548,19.2134146 254.192878,19.2134146 C255.012321,19.2134146 255.779346,19.0264246 256.493977,18.652439 C257.208608,18.2784534 257.780304,17.7408572 258.209082,17.0396341 C258.637861,16.3384111 258.852247,15.5390289 258.852247,14.6414634 L258.852247,4.48780488 C258.852247,3.9829243 258.995171,3.5715463 259.281023,3.25365854 C259.566875,2.93577077 259.957534,2.77682927 260.453011,2.77682927 Z" id="WONDER-WHO-RUN-Copy"></path>
            </g>
        </g>
    </g>
</svg>