<svg xmlns="http://www.w3.org/2000/svg" x="0" y="0" width="24" height="24" viewBox="0 0 24 24"><title>watch 2</title><g class="nc-icon-wrapper" fill="#111111"><g id="Outline_Icons_1_"><g id="Outline_Icons"><circle fill="none" stroke="#111111" stroke-linecap="round" stroke-linejoin="round" stroke-miterlimit="10" cx="11.5" cy="12.5" r="7"/><path fill="none" stroke="#111111" stroke-linecap="round" stroke-linejoin="round" stroke-miterlimit="10" d="M11.5 10v2.5l3 3"/><path fill="none" stroke="#111111" stroke-linejoin="round" stroke-miterlimit="10" d="M14 6l3.5-3.5 4 4L18 10"/><path fill="none" stroke="#111111" stroke-linejoin="round" stroke-miterlimit="10" d="M5 15.047L.5 19.5v4h4l4.484-4.469"/><path fill="none" stroke="#111111" stroke-linecap="round" stroke-linejoin="round" stroke-miterlimit="10" d="M17.5 2.5l2-2 4 4-2 2"/><path fill="none" stroke="#111111" stroke-linecap="round" stroke-linejoin="round" stroke-miterlimit="10" d="M19.5 4.5l2-2"/><path d="M3.5 20a.499.499 0 1 0-.002.998A.499.499 0 0 0 3.5 20z"/><path d="M5 18.5a.499.499 0 1 0-.002.998A.499.499 0 0 0 5 18.5z"/></g></g><path fill="none" id="Invisible_Shape" d="M0 0h24v24H0z"/></g></svg>